<svg width="960" height="640" viewBox="0 0 960 640" fill="none" xmlns="http://www.w3.org/2000/svg">
  <rect width="960" height="640" rx="36" fill="url(#gradient)" />
  <rect x="60" y="72" width="840" height="92" rx="20" fill="rgba(15,23,42,0.7)" stroke="rgba(255,255,255,0.1)" />
  <circle cx="120" cy="118" r="20" fill="#fb923c" />
  <rect x="180" y="104" width="220" height="28" rx="14" fill="rgba(255,255,255,0.25)" />
  <rect x="420" y="104" width="120" height="28" rx="14" fill="rgba(255,255,255,0.12)" />
  <rect x="60" y="200" width="380" height="340" rx="28" fill="rgba(15,23,42,0.7)" stroke="rgba(255,255,255,0.1)" />
  <rect x="470" y="200" width="430" height="160" rx="28" fill="rgba(15,23,42,0.7)" stroke="rgba(255,255,255,0.1)" />
  <rect x="470" y="384" width="430" height="156" rx="28" fill="rgba(15,23,42,0.7)" stroke="rgba(255,255,255,0.1)" />
  <rect x="90" y="232" width="320" height="28" rx="14" fill="rgba(255,255,255,0.18)" />
  <rect x="90" y="276" width="260" height="18" rx="9" fill="rgba(255,255,255,0.1)" />
  <rect x="90" y="314" width="320" height="160" rx="22" fill="#1e293b" />
  <path d="M130 438L170 346L230 402L290 354L350 430" stroke="#fb923c" stroke-width="6" stroke-linecap="round" stroke-linejoin="round" />
  <path d="M130 458L170 402L230 454L290 410L350 462" stroke="rgba(255,255,255,0.35)" stroke-width="4" stroke-linecap="round" stroke-linejoin="round" />
  <rect x="500" y="232" width="240" height="24" rx="12" fill="rgba(255,255,255,0.18)" />
  <rect x="500" y="268" width="180" height="14" rx="7" fill="rgba(255,255,255,0.1)" />
  <rect x="500" y="308" width="360" height="28" rx="14" fill="#1e293b" />
  <rect x="500" y="348" width="300" height="18" rx="9" fill="rgba(255,255,255,0.1)" />
  <rect x="500" y="416" width="360" height="28" rx="14" fill="#1e293b" />
  <rect x="500" y="456" width="320" height="18" rx="9" fill="rgba(255,255,255,0.1)" />
  <rect x="500" y="492" width="280" height="18" rx="9" fill="rgba(255,255,255,0.1)" />
  <defs>
    <linearGradient id="gradient" x1="0" y1="0" x2="960" y2="640" gradientUnits="userSpaceOnUse">
      <stop stop-color="#0f172a" />
      <stop offset="0.5" stop-color="#1e293b" />
      <stop offset="1" stop-color="#fb923c" stop-opacity="0.35" />
    </linearGradient>
  </defs>
</svg>
